<?xml version="1.0" encoding="utf-8"?>
<!-- Generator: Adobe Illustrator 22.1.0, SVG Export Plug-In . SVG Version: 6.00 Build 0)  -->
<svg version="1.1" id="Layer_1" xmlns="http://www.w3.org/2000/svg" xmlns:xlink="http://www.w3.org/1999/xlink" x="0px" y="0px"
	 viewBox="0 0 500 500" style="enable-background:new 0 0 500 500;" xml:space="preserve">
<style type="text/css">
	.st0{fill:none;stroke:#000000;stroke-width:10;stroke-miterlimit:10;}
</style>
<g>
	<path class="st0" d="M480.1,227c3.3-5.7,5.1-12.1,5.1-18.7c0-0.5,0-1,0-1.6c-1.3-12.2-7.4-23.4-16.9-31.2
		c-14.9-14-46.5-28.7-77.1-38.1l-17.3,26.5c14.1,3.5,38.2,10.5,50.6,18.1c7,3.7,11.9,10.4,13.4,18.2v1.2
		c0,28.4-84.2,51.4-188.1,51.4c-100.2,0-182.4-21.6-187.5-48.7c-0.1-0.9-0.1-1.8,0-2.7c0-8.1,6.8-15.7,18.8-22.5
		c29.4-16.5,107-29.8,178.2-30.6l22.1-27.9h-31.1c-93.2,0-173.7,20.3-211.8,49.7c-15.1,11.7-23.3,20.4-23.3,34.2
		c0,4.4,18.6,19.7,18.6,19.7c20.5,19,45.7,38,73.6,56.5c32.3,21.4,61.7,44,82,75.4c23.5,36.4,23.4,77.7,2.4,128.2
		c20.4,2.7,35.9,3.2,58.1,3.2c134.6,0,243.7-45.4,243.7-180C493.7,280,489.1,252.8,480.1,227z"/>
	<path class="st0" d="M280.5,144c0,0-29.6,35.3-45.8,54.8c-38.2,45.8-36.4,46.2,13.8,47.2c59.7,1.2,67.7-8.1,86.3-41
		c9.1-15.7,37.7-62.9,42.4-71.1c7.2-12.9,11-14.8,27.7-14.8c21,0,40.1-13.3,40.1-27.7c0-21.5-32.9-55.3-68.2-70.1
		c-22.9-9.5-38.2-9.1-47.7,1.4c-9.1,10-10.5,34.8-3.3,49.1c4.3,7.6,1,14.3-20,40.5L280.5,144z"/>
	<g>
		<g>
			<path class="st0" d="M29.1,238.7c-4.2-4.6-11.9-2.7-13.4,3.4c-5.6,21.8-10.4,49.8-9.1,79.1c5.4,91.1,64.1,138.2,146.9,156.6
				c0.9,0.2,10.4,2.1,18,2.7c3.4,0.3,6.6-1.7,7.9-4.9C235.5,333,86.7,302.5,29.1,238.7z M168.5,456.2c-1,3-3.9,4.9-7,4.7
				c-46.1-3.9-162.2-42-135.2-189.5c0.9-4.8,6.8-6.7,10.3-3.4C72.9,317,206.3,340,168.5,456.2z"/>
		</g>
		<g>
			<path class="st0" d="M50,341c-2.6-4.5-1.1-10.2,3.4-12.8c4.5-2.6,10.2-1.1,12.8,3.4c2.6,4.5,1.1,10.2-3.4,12.8
				C58.3,347,52.6,345.5,50,341z"/>
			<path class="st0" d="M60.8,371.1c-1.7-3-0.7-6.8,2.3-8.6c3-1.7,6.8-0.7,8.6,2.3c1.7,3,0.7,6.8-2.3,8.6
				C66.4,375.1,62.6,374.1,60.8,371.1z"/>
			<path class="st0" d="M131.9,369c-0.9-1.5-0.4-3.4,1.1-4.3c1.5-0.9,3.4-0.4,4.3,1.1c0.9,1.5,0.4,3.4-1.1,4.3
				C134.7,371,132.8,370.5,131.9,369z M141.4,406.2c-0.9-1.5-0.4-3.4,1.1-4.3c1.5-0.9,3.4-0.4,4.3,1.1c0.9,1.5,0.4,3.4-1.1,4.3
				C144.2,408.2,142.3,407.7,141.4,406.2z M117.9,398.8c-4.5,2.6-10.2,1.1-12.8-3.4c-2.6-4.5-1.1-10.2,3.4-12.8
				c4.5-2.6,10.2-1.1,12.8,3.4C123.9,390.5,122.4,396.2,117.9,398.8z M124.9,430.7c-1.7-3-0.7-6.8,2.3-8.6c3-1.7,6.8-0.7,8.6,2.3
				c1.7,3,0.7,6.8-2.3,8.6C130.4,434.7,126.6,433.6,124.9,430.7z M88.7,414.1c-1.7-3-0.7-6.8,2.3-8.6c3-1.7,6.8-0.7,8.6,2.3
				c1.7,3,0.7,6.8-2.3,8.6C94.3,418.1,90.5,417.1,88.7,414.1z"/>
			<path class="st0" d="M86.1,352.3c-1-1.7-0.4-4,1.3-5c1.7-1,4-0.4,5,1.3c1,1.7,0.4,4-1.3,5C89.3,354.6,87.1,354,86.1,352.3z"/>
		</g>
	</g>
</g>
</svg>
